<svg width="188" height="39" viewBox="0 0 188 39" fill="none" xmlns="http://www.w3.org/2000/svg">
<path fill-rule="evenodd" clip-rule="evenodd" d="M0.97998 2L2 0.97998H47.1547L47.5464 2.94181L6.89158 19.8504L47.5464 36.7589L47.1547 38.7208H2L0.97998 37.7007V2ZM3.02002 3.02002V36.6807H42.046L3.84368 20.7922V18.9086L42.046 3.02002H3.02002ZM148.115 24.4239V37.4004H146.113V23.0956H149.607L158.885 36.0721V23.0956H160.867V37.4004H157.352L148.115 24.4239ZM137.822 37.1347C138.803 36.6442 139.566 36.0312 140.111 35.2955V37.3799H142.113V30.1049H132.325V31.9441H140.07C139.975 32.5027 139.777 33.034 139.477 33.5381C139.191 34.0285 138.796 34.4645 138.292 34.8459C137.802 35.2274 137.202 35.5271 136.494 35.7451C135.785 35.9631 134.954 36.0721 134.001 36.0721C133.006 36.0721 132.127 35.929 131.364 35.6429C130.615 35.3432 129.988 34.9413 129.484 34.4372C128.98 33.9195 128.599 33.3065 128.34 32.598C128.095 31.8896 127.972 31.1199 127.972 30.2888C127.972 29.4169 128.095 28.6268 128.34 27.9183C128.599 27.1963 128.98 26.5764 129.484 26.0587C129.988 25.541 130.615 25.1391 131.364 24.853C132.127 24.5669 133.006 24.4239 134.001 24.4239C134.75 24.4239 135.431 24.5124 136.044 24.6895C136.671 24.853 137.223 25.0914 137.699 25.4048C138.19 25.7045 138.592 26.0791 138.905 26.5287C139.232 26.9647 139.464 27.4483 139.6 27.9796H141.766C141.466 26.1949 140.635 24.8598 139.273 23.9743C137.924 23.0888 136.167 22.646 134.001 22.646C132.72 22.646 131.576 22.8095 130.567 23.1364C129.559 23.4498 128.701 23.9266 127.993 24.5669C127.298 25.1936 126.766 25.9702 126.399 26.8966C126.031 27.823 125.847 28.8924 125.847 30.1049V30.4932C125.847 31.6512 126.031 32.6866 126.399 33.5994C126.766 34.4985 127.298 35.2683 127.993 35.9086C128.701 36.5353 129.559 37.0189 130.567 37.3595C131.576 37.6865 132.72 37.8499 134.001 37.8499C135.567 37.8499 136.841 37.6115 137.822 37.1347ZM122.651 35.602V37.4004H109.47V35.602H115.008V24.8939H109.47V23.0956H122.651V24.8939H117.011V35.602H122.651ZM105.511 35.2342C105.769 34.6893 105.899 34.0966 105.899 33.4563C105.899 32.6934 105.763 32.0599 105.49 31.5558C105.231 31.0518 104.816 30.6431 104.244 30.3297C103.671 30.0164 102.943 29.7848 102.057 29.6349C101.171 29.4714 100.102 29.3556 98.8487 29.2875C97.9495 29.233 97.1661 29.1649 96.4986 29.0832C95.8447 28.9878 95.3065 28.8584 94.8842 28.6949C94.4619 28.5178 94.1485 28.293 93.9442 28.0205C93.7534 27.7344 93.6581 27.3802 93.6581 26.9579C93.6581 26.5219 93.7807 26.1541 94.0259 25.8544C94.2847 25.541 94.639 25.289 95.0885 25.0982C95.5517 24.8939 96.0967 24.744 96.7234 24.6487C97.3637 24.5533 98.0721 24.5056 98.8487 24.5056C99.5298 24.5056 100.157 24.5601 100.729 24.6691C101.301 24.7781 101.798 24.962 102.22 25.2209C102.656 25.4797 103.004 25.8271 103.263 26.2631C103.522 26.6854 103.678 27.2167 103.733 27.857H105.899C105.844 27.2576 105.708 26.6513 105.49 26.0383C105.286 25.4252 104.925 24.8735 104.407 24.383C103.903 23.8926 103.208 23.4907 102.323 23.1773C101.451 22.864 100.313 22.7073 98.91 22.7073C97.6021 22.7073 96.485 22.8299 95.5586 23.0751C94.6321 23.3067 93.8692 23.6269 93.2698 24.0356C92.684 24.4307 92.2548 24.8939 91.9824 25.4252C91.7099 25.9565 91.5737 26.5151 91.5737 27.1009C91.5737 27.8911 91.7099 28.5314 91.9824 29.0218C92.2548 29.5123 92.6772 29.9006 93.2494 30.1867C93.8215 30.4728 94.5436 30.6771 95.4155 30.7997C96.301 30.9223 97.3432 31.0041 98.5421 31.0449C100.354 31.1539 101.689 31.3924 102.547 31.7602C103.406 32.128 103.828 32.7411 103.814 33.5994C103.801 34.4577 103.31 35.0843 102.343 35.4794C101.389 35.8609 100.082 36.0516 98.4195 36.0516C96.8119 36.0516 95.579 35.7519 94.7207 35.1525C93.876 34.5394 93.4128 33.6811 93.3311 32.5776H91.1649C91.2194 33.177 91.3557 33.7901 91.5737 34.4168C91.8053 35.0299 92.1799 35.5952 92.6976 36.1129C93.2289 36.617 93.9442 37.0325 94.8433 37.3595C95.7561 37.6865 96.9277 37.8499 98.3582 37.8499C99.7887 37.8499 100.981 37.741 101.934 37.523C102.902 37.305 103.678 37.0053 104.264 36.6238C104.85 36.2287 105.265 35.7655 105.511 35.2342ZM88.1748 35.602V37.4004H74.524V23.0956H87.5005V24.8939H76.5266V28.7562H85.4365V30.5545H76.5266V35.602H88.1748ZM70.6543 33.3337C70.9813 32.3801 71.1448 31.2221 71.1448 29.8597V29.7575C71.1448 28.763 71.029 27.9115 70.7974 27.2031C70.5658 26.481 70.2456 25.8748 69.8369 25.3843C69.4418 24.8939 68.9718 24.4988 68.4269 24.1991C67.8956 23.8994 67.3234 23.6678 66.7103 23.5043C66.0972 23.3408 65.4569 23.2318 64.7894 23.1773C64.1354 23.1228 63.4883 23.0956 62.848 23.0956H56.4722V37.4004H63.8902C65.0482 37.4004 66.0768 37.2641 66.976 36.9916C67.8751 36.7056 68.6312 36.2628 69.2443 35.6633C69.871 35.0639 70.341 34.2874 70.6543 33.3337ZM63.1954 35.602H58.4748V24.8939H62.9502C64.0537 24.9075 64.9869 25.0165 65.7498 25.2209C66.5264 25.4116 67.1531 25.7181 67.6299 26.1405C68.1204 26.5492 68.4746 27.0737 68.6925 27.714C68.9105 28.3543 69.0195 29.124 69.0195 30.0232C69.0195 30.8815 68.9446 31.658 68.7947 32.3528C68.6585 33.034 68.3792 33.6198 67.9569 34.1103C67.5482 34.5871 66.9623 34.9549 66.1994 35.2138C65.4365 35.4726 64.4352 35.602 63.1954 35.602ZM171.181 9.94379C171.222 8.64954 171.447 7.53241 171.855 6.59238C172.278 5.65235 172.85 4.88262 173.572 4.28318C174.308 3.67012 175.173 3.22054 176.167 2.93444C177.175 2.63472 178.293 2.48486 179.519 2.48486C180.745 2.48486 181.855 2.64153 182.85 2.95488C183.858 3.2546 184.723 3.71099 185.445 4.32405C186.181 4.93711 186.753 5.71366 187.162 6.65369C187.584 7.58009 187.815 8.67679 187.856 9.94379V10.3116C187.815 11.5786 187.584 12.6821 187.162 13.6222C186.753 14.5486 186.181 15.3115 185.445 15.9109C184.723 16.5104 183.858 16.9531 182.85 17.2392C181.855 17.5389 180.745 17.6888 179.519 17.6888C178.293 17.6888 177.175 17.5389 176.167 17.2392C175.173 16.9531 174.308 16.5104 173.572 15.9109C172.85 15.2979 172.278 14.5281 171.855 13.6017C171.447 12.6753 171.222 11.5786 171.181 10.3116V9.94379ZM179.519 4.28318C178.579 4.28318 177.72 4.40579 176.944 4.65102C176.181 4.89624 175.527 5.26408 174.982 5.75453C174.451 6.23136 174.035 6.83761 173.735 7.57328C173.449 8.29533 173.306 9.14681 173.306 10.1277C173.306 11.0677 173.449 11.8988 173.735 12.6208C174.035 13.3293 174.451 13.9287 174.982 14.4191C175.527 14.896 176.181 15.2638 176.944 15.5227C177.72 15.7679 178.579 15.8905 179.519 15.8905C180.459 15.8905 181.31 15.7679 182.073 15.5227C182.85 15.2774 183.504 14.9164 184.035 14.4396C184.58 13.9491 184.995 13.3497 185.281 12.6413C185.581 11.9192 185.731 11.0814 185.731 10.1277C185.731 9.18768 185.581 8.35664 185.281 7.63459C184.995 6.91254 184.58 6.30629 184.035 5.81584C183.504 5.31176 182.85 4.9303 182.073 4.67145C181.31 4.4126 180.459 4.28318 179.519 4.28318ZM168.006 17.2392V15.4409H162.365V4.73276H168.006V2.93444H154.825V4.73276H160.363V15.4409H154.825V17.2392H168.006ZM151.446 9.69856C151.446 11.0609 151.282 12.2189 150.955 13.1726C150.642 14.1262 150.172 14.9028 149.545 15.5022C148.932 16.1017 148.176 16.5444 147.277 16.8305C146.378 17.103 145.349 17.2392 144.191 17.2392H136.773V2.93444H143.149C143.789 2.93444 144.436 2.96169 145.09 3.01618C145.758 3.07068 146.398 3.17967 147.011 3.34315C147.624 3.50663 148.196 3.73824 148.728 4.03795C149.273 4.33767 149.743 4.73276 150.138 5.22321C150.546 5.71366 150.867 6.31991 151.098 7.04196C151.33 7.75039 151.446 8.60186 151.446 9.59639V9.69856ZM138.776 15.4409H143.496C144.736 15.4409 145.737 15.3115 146.5 15.0526C147.263 14.7938 147.849 14.426 148.258 13.9491C148.68 13.4587 148.959 12.8729 149.095 12.1917C149.245 11.4969 149.32 10.7203 149.32 9.86205C149.32 8.96289 149.211 8.19315 148.993 7.55284C148.775 6.91253 148.421 6.38803 147.931 5.97932C147.454 5.55699 146.827 5.25046 146.051 5.05973C145.288 4.85537 144.354 4.74638 143.251 4.73276H138.776V15.4409ZM130.934 16.1766C132.092 15.1821 132.712 13.6153 132.794 11.4764V2.93444H130.791V10.5773C130.791 11.3675 130.737 12.0895 130.628 12.7434C130.519 13.3837 130.287 13.9355 129.933 14.3987C129.592 14.8619 129.088 15.2229 128.421 15.4818C127.767 15.727 126.888 15.8496 125.785 15.8496C124.681 15.8496 123.802 15.7202 123.148 15.4613C122.508 15.2025 122.011 14.8415 121.657 14.3783C121.316 13.9014 121.091 13.3361 120.982 12.6821C120.873 12.0282 120.819 11.313 120.819 10.5364V2.93444H118.816V11.4764C118.884 13.5881 119.497 15.148 120.655 16.1562C121.827 17.1507 123.544 17.6479 125.805 17.6479C128.067 17.6479 129.776 17.1575 130.934 16.1766ZM109.482 4.73276V17.2392H107.48V4.73276H101.124V2.93444H115.858V4.73276H109.482ZM98.1866 15.0731C98.4454 14.5281 98.5749 13.9355 98.5749 13.2952C98.5749 12.5323 98.4386 11.8988 98.1661 11.3947C97.9073 10.8906 97.4918 10.4819 96.9196 10.1686C96.3474 9.85523 95.6185 9.62363 94.733 9.47377C93.8475 9.31029 92.778 9.19449 91.5246 9.12637C90.6255 9.07188 89.8421 9.00376 89.1746 8.92202C88.5206 8.82665 87.9825 8.69723 87.5602 8.53374C87.1378 8.35664 86.8245 8.13185 86.6201 7.85938C86.4294 7.57328 86.334 7.21907 86.334 6.79673C86.334 6.36078 86.4567 5.99294 86.7019 5.69322C86.9607 5.37988 87.3149 5.12784 87.7645 4.93711C88.2277 4.73276 88.7727 4.5829 89.3994 4.48753C90.0397 4.39217 90.7481 4.34449 91.5246 4.34449C92.2058 4.34449 92.8325 4.39898 93.4047 4.50797C93.9769 4.61696 94.4741 4.80088 94.8965 5.05973C95.3324 5.31857 95.6798 5.66598 95.9387 6.10193C96.1975 6.52426 96.3542 7.05558 96.4087 7.69589H98.5749C98.5204 7.09645 98.3841 6.4902 98.1661 5.87714C97.9618 5.26408 97.6008 4.71232 97.0831 4.22187C96.579 3.73142 95.8842 3.32953 94.9987 3.01618C94.1267 2.70284 92.9892 2.54617 91.5859 2.54617C90.2781 2.54617 89.1609 2.66878 88.2345 2.91401C87.3081 3.14561 86.5452 3.46576 85.9458 3.87447C85.36 4.26956 84.9308 4.73276 84.6583 5.26408C84.3859 5.7954 84.2496 6.35397 84.2496 6.93978C84.2496 7.72995 84.3859 8.37026 84.6583 8.86071C84.9308 9.35116 85.3531 9.73943 85.9253 10.0255C86.4975 10.3116 87.2196 10.516 88.0915 10.6386C88.977 10.7612 90.0192 10.8429 91.2181 10.8838C93.03 10.9928 94.3652 11.2312 95.2234 11.5991C96.0817 11.9669 96.5041 12.58 96.4904 13.4382C96.4768 14.2965 95.9864 14.9232 95.0191 15.3183C94.0654 15.6998 92.7576 15.8905 91.0955 15.8905C89.4879 15.8905 88.255 15.5908 87.3967 14.9913C86.552 14.3783 86.0888 13.52 86.0071 12.4165H83.8409C83.8954 13.0159 84.0317 13.629 84.2496 14.2557C84.4812 14.8687 84.8559 15.4341 85.3736 15.9518C85.9049 16.4559 86.6201 16.8714 87.5193 17.1984C88.4321 17.5253 89.6037 17.6888 91.0342 17.6888C92.4647 17.6888 93.6567 17.5798 94.6104 17.3618C95.5777 17.1439 96.3542 16.8441 96.94 16.4627C97.5258 16.0676 97.9414 15.6044 98.1866 15.0731ZM80.0355 14.2761V17.6071H76.6841V14.2761H80.0355ZM58.4748 17.2392V14.8892L65.4637 9.12637L70.7156 17.2392H73.1066L67.0168 7.83894L72.9635 2.93444H70.0004L58.4748 12.4982V2.93444H56.4722V17.2392H58.4748Z" fill="white"/>
</svg>
